<svg width="6" height="6" viewBox="0 0 6 6" fill="none" xmlns="http://www.w3.org/2000/svg">
<path d="M5.96002 0.30985C5.90931 0.187735 5.81226 0.0906936 5.69015 0.0399806C5.63007 0.0143725 5.56555 0.000789612 5.50024 0H0.502656C0.370112 0 0.242997 0.0526531 0.149274 0.146376C0.0555508 0.240099 0.00289777 0.367214 0.00289777 0.499759C0.00289777 0.632303 0.0555508 0.759418 0.149274 0.853141C0.242997 0.946864 0.370112 0.999517 0.502656 0.999517H4.29582L0.147828 5.14252C0.100986 5.18897 0.0638071 5.24425 0.038435 5.30515C0.0130629 5.36605 0 5.43137 0 5.49734C0 5.56332 0.0130629 5.62864 0.038435 5.68954C0.0638071 5.75044 0.100986 5.80571 0.147828 5.85217C0.194287 5.89901 0.249561 5.93619 0.310461 5.96157C0.371361 5.98694 0.436682 6 0.502656 6C0.56863 6 0.633952 5.98694 0.694852 5.96157C0.755752 5.93619 0.811026 5.89901 0.857485 5.85217L5.00048 1.70418V5.49734C5.00048 5.62989 5.05314 5.757 5.14686 5.85073C5.24058 5.94445 5.3677 5.9971 5.50024 5.9971C5.63279 5.9971 5.7599 5.94445 5.85362 5.85073C5.94735 5.757 6 5.62989 6 5.49734V0.499759C5.99921 0.434451 5.98563 0.369932 5.96002 0.30985Z" fill="#0BF1FF" fill-opacity="0.5"/>
</svg>
