<svg width="9" height="9" viewBox="0 0 9 9" fill="none" xmlns="http://www.w3.org/2000/svg">
    <path d="M8.94003 0.464775C8.86396 0.281602 8.7184 0.13604 8.53522 0.059971C8.4451 0.0215588 8.34832 0.00118442 8.25036 0H0.753984C0.555168 0 0.364495 0.0789796 0.223911 0.219564C0.0833263 0.360148 0.00434665 0.550821 0.00434665 0.749638C0.00434665 0.948454 0.0833263 1.13913 0.223911 1.27971C0.364495 1.4203 0.555168 1.49928 0.753984 1.49928H6.44374L0.221742 7.71377C0.151479 7.78346 0.0957106 7.86637 0.0576525 7.95772C0.0195944 8.04907 0 8.14705 0 8.24602C0 8.34498 0.0195944 8.44296 0.0576525 8.53431C0.0957106 8.62566 0.151479 8.70857 0.221742 8.77826C0.29143 8.84852 0.374341 8.90429 0.465691 8.94235C0.557041 8.98041 0.655023 9 0.753984 9C0.852946 9 0.950927 8.98041 1.04228 8.94235C1.13363 8.90429 1.21654 8.84852 1.28623 8.77826L7.50072 2.55626V8.24602C7.50072 8.44483 7.5797 8.63551 7.72029 8.77609C7.86087 8.91667 8.05155 8.99565 8.25036 8.99565C8.44918 8.99565 8.63985 8.91667 8.78044 8.77609C8.92102 8.63551 9 8.44483 9 8.24602V0.749638C8.99882 0.651677 8.97844 0.554899 8.94003 0.464775V0.464775Z" fill="#0BF1FF"/>
</svg>