<svg width="13" height="15" viewBox="0 0 13 15" fill="none" xmlns="http://www.w3.org/2000/svg">
    <path d="M12.8515 4.03864C12.8515 4.03864 12.8515 4.03864 12.8515 3.9785L12.8058 3.86573C12.7899 3.8418 12.7721 3.81918 12.7525 3.79807C12.7322 3.76624 12.7092 3.73608 12.684 3.70785L12.6155 3.65523L12.4936 3.59509L6.78265 0.114275C6.66163 0.0395969 6.52179 0 6.37908 0C6.23636 0 6.09652 0.0395969 5.9755 0.114275L0.310199 3.59509L0.241667 3.65523L0.173135 3.70785C0.147894 3.73608 0.124977 3.76624 0.104604 3.79807C0.0850277 3.81918 0.0672027 3.8418 0.0513011 3.86573L0.0056131 3.9785C0.0056131 3.9785 0.0056131 3.9785 0.0056131 4.03864C-0.00187103 4.10359 -0.00187103 4.16917 0.0056131 4.23411V10.8048C0.00535415 10.9326 0.038079 11.0583 0.100698 11.1701C0.163317 11.2819 0.253765 11.3761 0.363502 11.4438L6.07449 14.9246C6.10964 14.9461 6.14829 14.9613 6.18871 14.9697C6.18871 14.9697 6.22678 14.9697 6.24963 14.9697C6.37845 15.0101 6.51676 15.0101 6.64559 14.9697C6.64559 14.9697 6.68366 14.9697 6.70651 14.9697C6.74693 14.9613 6.78558 14.9461 6.82073 14.9246V14.9246L12.4936 11.4438C12.6034 11.3761 12.6938 11.2819 12.7564 11.1701C12.8191 11.0583 12.8518 10.9326 12.8515 10.8048V4.23411C12.859 4.16917 12.859 4.10359 12.8515 4.03864V4.03864ZM5.64046 12.9399L1.4524 10.3838V5.58734L5.64046 8.13593V12.9399ZM6.40192 6.83532L2.13772 4.23411L6.40192 1.64042L10.6661 4.23411L6.40192 6.83532ZM11.3514 10.3838L7.16339 12.9399V8.13593L11.3514 5.58734V10.3838Z" fill="#0BF1FF"/>
</svg>