<svg width="16" height="16" viewBox="0 0 16 16" fill="none" xmlns="http://www.w3.org/2000/svg">
    <path d="M9.40994 7.99823L13.7099 3.70823C13.8982 3.51993 14.004 3.26453 14.004 2.99823C14.004 2.73193 13.8982 2.47654 13.7099 2.28823C13.5216 2.09993 13.2662 1.99414 12.9999 1.99414C12.7336 1.99414 12.4782 2.09993 12.2899 2.28823L7.99994 6.58823L3.70994 2.28823C3.52164 2.09993 3.26624 1.99414 2.99994 1.99414C2.73364 1.99414 2.47824 2.09993 2.28994 2.28823C2.10164 2.47654 1.99585 2.73193 1.99585 2.99823C1.99585 3.26453 2.10164 3.51993 2.28994 3.70823L6.58994 7.99823L2.28994 12.2882C2.19621 12.3812 2.12182 12.4918 2.07105 12.6137C2.02028 12.7355 1.99414 12.8662 1.99414 12.9982C1.99414 13.1302 2.02028 13.2609 2.07105 13.3828C2.12182 13.5047 2.19621 13.6153 2.28994 13.7082C2.3829 13.802 2.4935 13.8764 2.61536 13.9271C2.73722 13.9779 2.86793 14.004 2.99994 14.004C3.13195 14.004 3.26266 13.9779 3.38452 13.9271C3.50638 13.8764 3.61698 13.802 3.70994 13.7082L7.99994 9.40823L12.2899 13.7082C12.3829 13.802 12.4935 13.8764 12.6154 13.9271C12.7372 13.9779 12.8679 14.004 12.9999 14.004C13.132 14.004 13.2627 13.9779 13.3845 13.9271C13.5064 13.8764 13.617 13.802 13.7099 13.7082C13.8037 13.6153 13.8781 13.5047 13.9288 13.3828C13.9796 13.2609 14.0057 13.1302 14.0057 12.9982C14.0057 12.8662 13.9796 12.7355 13.9288 12.6137C13.8781 12.4918 13.8037 12.3812 13.7099 12.2882L9.40994 7.99823Z" fill="#FA4141"/>
</svg>