<svg width="17" height="16" viewBox="0 0 17 16" fill="none" xmlns="http://www.w3.org/2000/svg">
    <path d="M15.6013 10.6127H4.24377C4.02861 10.6127 3.82227 10.5337 3.67013 10.3933C3.51799 10.2528 3.43252 10.0622 3.43252 9.86355C3.43252 9.66487 3.51799 9.47433 3.67013 9.33384C3.82227 9.19335 4.02861 9.11443 4.24377 9.11443H12.7133C13.2557 9.11446 13.7826 8.94714 14.2103 8.63906C14.638 8.33097 14.942 7.89977 15.074 7.41393L16.4126 2.55215C16.443 2.44158 16.4456 2.32607 16.4203 2.21442C16.395 2.10277 16.3424 1.99793 16.2666 1.9079C16.1877 1.81556 16.0863 1.74167 15.9707 1.69222C15.8552 1.64276 15.7286 1.61913 15.6013 1.62324H4.04907C3.8817 1.18609 3.57199 0.807446 3.16242 0.539217C2.75285 0.270987 2.26345 0.126303 1.76133 0.125H0.998754C0.783596 0.125 0.57725 0.203925 0.425111 0.344412C0.272971 0.484899 0.1875 0.67544 0.1875 0.874119C0.1875 1.0728 0.272971 1.26334 0.425111 1.40383C0.57725 1.54431 0.783596 1.62324 0.998754 1.62324H1.76133C1.94665 1.61825 2.12823 1.67203 2.27583 1.77562C2.42344 1.87921 2.52817 2.02636 2.57259 2.19257L2.62126 2.55215L4.02473 7.61619C3.37926 7.64301 2.77176 7.90551 2.33588 8.34594C1.9 8.78636 1.67144 9.36864 1.70049 9.96468C1.72953 10.5607 2.0138 11.1217 2.49076 11.5242C2.96772 11.9267 3.5983 12.1377 4.24377 12.1109H4.38979C4.25637 12.4504 4.2135 12.8145 4.26481 13.1725C4.31611 13.5305 4.46009 13.8718 4.68454 14.1675C4.90899 14.4632 5.20731 14.7046 5.55423 14.8713C5.90115 15.038 6.28646 15.125 6.67753 15.125C7.0686 15.125 7.45391 15.038 7.80083 14.8713C8.14775 14.7046 8.44607 14.4632 8.67052 14.1675C8.89497 13.8718 9.03895 13.5305 9.09026 13.1725C9.14156 12.8145 9.09869 12.4504 8.96527 12.1109H10.8798C10.7464 12.4504 10.7035 12.8145 10.7548 13.1725C10.8061 13.5305 10.9501 13.8718 11.1746 14.1675C11.399 14.4632 11.6973 14.7046 12.0443 14.8713C12.3912 15.038 12.7765 15.125 13.1676 15.125C13.5586 15.125 13.9439 15.038 14.2909 14.8713C14.6378 14.7046 14.9361 14.4632 15.1606 14.1675C15.385 13.8718 15.529 13.5305 15.5803 13.1725C15.6316 12.8145 15.5887 12.4504 15.4553 12.1109H15.6013C15.8165 12.1109 16.0228 12.032 16.175 11.8915C16.3271 11.751 16.4126 11.5605 16.4126 11.3618C16.4126 11.1631 16.3271 10.9726 16.175 10.8321C16.0228 10.6916 15.8165 10.6127 15.6013 10.6127ZM14.5629 3.12148L13.5002 7.04686C13.4558 7.21307 13.351 7.36022 13.2034 7.46381C13.0558 7.5674 12.8742 7.62117 12.6889 7.61619H5.6878L4.47092 3.12148H14.5629ZM6.67753 13.6091C6.51708 13.6091 6.36023 13.5652 6.22682 13.4829C6.09341 13.4006 5.98943 13.2836 5.92803 13.1467C5.86663 13.0098 5.85056 12.8592 5.88186 12.7139C5.91317 12.5686 5.99043 12.4351 6.10389 12.3303C6.21734 12.2255 6.3619 12.1542 6.51926 12.1253C6.67663 12.0964 6.83975 12.1112 6.98798 12.1679C7.13622 12.2246 7.26292 12.3206 7.35206 12.4438C7.44121 12.567 7.48878 12.7119 7.48878 12.86C7.48878 13.0587 7.40331 13.2492 7.25117 13.3897C7.09903 13.5302 6.89269 13.6091 6.67753 13.6091ZM13.1676 13.6091C13.0071 13.6091 12.8503 13.5652 12.7169 13.4829C12.5834 13.4006 12.4795 13.2836 12.4181 13.1467C12.3567 13.0098 12.3406 12.8592 12.3719 12.7139C12.4032 12.5686 12.4805 12.4351 12.5939 12.3303C12.7074 12.2255 12.8519 12.1542 13.0093 12.1253C13.1667 12.0964 13.3298 12.1112 13.478 12.1679C13.6263 12.2246 13.753 12.3206 13.8421 12.4438C13.9312 12.567 13.9788 12.7119 13.9788 12.86C13.9788 13.0587 13.8933 13.2492 13.7412 13.3897C13.5891 13.5302 13.3827 13.6091 13.1676 13.6091Z" fill="#0BF1FF"/>
</svg>