<svg width="9" height="10" viewBox="0 0 9 10" fill="none" xmlns="http://www.w3.org/2000/svg">
    <path d="M6.88717 1.81802L4.50068 4.2045L2.11419 1.81802C2.00871 1.71253 1.86563 1.65327 1.71645 1.65327C1.56726 1.65327 1.42419 1.71253 1.3187 1.81802C1.21321 1.92351 1.15395 2.06658 1.15395 2.21577C1.15395 2.36495 1.21321 2.50803 1.3187 2.61351L3.70518 5L1.3187 7.38649C1.21321 7.49197 1.15395 7.63505 1.15395 7.78423C1.15395 7.93342 1.21321 8.07649 1.3187 8.18198C1.42419 8.28747 1.56726 8.34673 1.71645 8.34673C1.86563 8.34673 2.00871 8.28747 2.11419 8.18198L4.50068 5.7955L6.88717 8.18198C6.99265 8.28747 7.13573 8.34673 7.28491 8.34673C7.4341 8.34673 7.57717 8.28747 7.68266 8.18198C7.78815 8.07649 7.84741 7.93342 7.84741 7.78423C7.84741 7.63505 7.78815 7.49197 7.68266 7.38649L5.29617 5L7.68266 2.61351C7.78815 2.50803 7.84741 2.36495 7.84741 2.21577C7.84741 2.06658 7.78815 1.92351 7.68266 1.81802C7.57717 1.71253 7.4341 1.65327 7.28491 1.65327C7.13573 1.65327 6.99265 1.71253 6.88717 1.81802Z" fill="#0BF1FF"/>
</svg>