<svg width="13" height="12" viewBox="0 0 13 12" fill="none" xmlns="http://www.w3.org/2000/svg">
    <path d="M5.19697 6.51516H7.80303C7.97583 6.51516 8.14154 6.44652 8.26372 6.32434C8.38591 6.20215 8.45455 6.03644 8.45455 5.86364C8.45455 5.69085 8.38591 5.52514 8.26372 5.40295C8.14154 5.28077 7.97583 5.21213 7.80303 5.21213H5.19697C5.02418 5.21213 4.85846 5.28077 4.73628 5.40295C4.61409 5.52514 4.54545 5.69085 4.54545 5.86364C4.54545 6.03644 4.61409 6.20215 4.73628 6.32434C4.85846 6.44652 5.02418 6.51516 5.19697 6.51516V6.51516ZM11.0606 0H1.93939C1.48102 0.00355621 1.03848 0.1681 0.689134 0.464867C0.339786 0.761634 0.105854 1.17174 0.028232 1.62351C-0.0493904 2.07527 0.0342349 2.53994 0.264489 2.9363C0.494744 3.33265 0.856979 3.63547 1.28787 3.79182V9.77274C1.28787 10.2911 1.4938 10.7883 1.86035 11.1548C2.2269 11.5214 2.72404 11.7273 3.24242 11.7273H9.75758C10.276 11.7273 10.7731 11.5214 11.1397 11.1548C11.5062 10.7883 11.7121 10.2911 11.7121 9.77274V3.79182C12.143 3.63547 12.5053 3.33265 12.7355 2.9363C12.9658 2.53994 13.0494 2.07527 12.9718 1.62351C12.8941 1.17174 12.6602 0.761634 12.3109 0.464867C11.9615 0.1681 11.519 0.00355621 11.0606 0ZM10.4091 9.77274C10.4091 9.94553 10.3405 10.1112 10.2183 10.2334C10.0961 10.3556 9.93037 10.4243 9.75758 10.4243H3.24242C3.06963 10.4243 2.90391 10.3556 2.78173 10.2334C2.65955 10.1112 2.5909 9.94553 2.5909 9.77274V3.9091H10.4091V9.77274ZM11.0606 2.60606H1.93939C1.7666 2.60606 1.60088 2.53742 1.4787 2.41524C1.35651 2.29306 1.28787 2.12734 1.28787 1.95455C1.28787 1.78176 1.35651 1.61604 1.4787 1.49386C1.60088 1.37167 1.7666 1.30303 1.93939 1.30303H11.0606C11.2334 1.30303 11.3991 1.37167 11.5213 1.49386C11.6435 1.61604 11.7121 1.78176 11.7121 1.95455C11.7121 2.12734 11.6435 2.29306 11.5213 2.41524C11.3991 2.53742 11.2334 2.60606 11.0606 2.60606Z" fill="#0BF1FF"/>
</svg>