<svg width="26" height="26" viewBox="0 0 26 26" fill="none" xmlns="http://www.w3.org/2000/svg">
<path opacity="0.2" d="M25.9293 13.0002C25.9293 20.1421 20.1397 25.9318 12.9979 25.9318C5.856 25.9318 0.0664062 20.1421 0.0664062 13.0002C0.0664062 5.85838 5.856 0.0687866 12.9979 0.0687866C20.1397 0.0687866 25.9293 5.85838 25.9293 13.0002Z" fill="#505050"/>
<g opacity="0.8">
<path d="M12.9568 7L12.877 7.27148V15.1493L12.9568 15.229L16.6136 13.0675L12.9568 7Z" fill="white"/>
<path d="M12.9576 7L9.30078 13.0675L12.9576 15.229V11.4054V7Z" fill="white"/>
<path d="M12.9571 16.4188L12.9121 16.4737V19.2799L12.9571 19.4114L16.6161 14.2584L12.9571 16.4188Z" fill="white"/>
<path d="M12.9576 19.4114V16.4188L9.30078 14.2584L12.9576 19.4114Z" fill="white"/>
<path d="M12.957 15.229L16.6138 13.0675L12.957 11.4054V15.229Z" fill="white"/>
<path d="M9.30078 13.0675L12.9575 15.229V11.4054L9.30078 13.0675Z" fill="white"/>
</g>
</svg>
