<svg width="12" height="12" viewBox="0 0 12 12" fill="none" xmlns="http://www.w3.org/2000/svg">
    <path d="M6.35549 6.60003L4.97517 7.97402C4.91892 8.0298 4.87427 8.09616 4.8438 8.16927C4.81333 8.24239 4.79765 8.32081 4.79765 8.40002C4.79765 8.47922 4.81333 8.55765 4.8438 8.63076C4.87427 8.70388 4.91892 8.77024 4.97517 8.82602C5.03096 8.88225 5.09733 8.92689 5.17047 8.95735C5.2436 8.98781 5.32204 9.00349 5.40127 9.00349C5.48049 9.00349 5.55894 8.98781 5.63207 8.95735C5.7052 8.92689 5.77158 8.88225 5.82737 8.82602L8.22793 6.42603C8.28257 6.36897 8.3254 6.30168 8.35396 6.22803C8.41399 6.08195 8.41399 5.91811 8.35396 5.77203C8.3254 5.69838 8.28257 5.63109 8.22793 5.57403L5.82737 3.17404C5.77141 3.1181 5.70498 3.07372 5.63187 3.04345C5.55876 3.01317 5.4804 2.99759 5.40127 2.99759C5.32213 2.99759 5.24377 3.01317 5.17066 3.04345C5.09755 3.07372 5.03112 3.1181 4.97517 3.17404C4.91921 3.22999 4.87482 3.2964 4.84454 3.36949C4.81426 3.44259 4.79867 3.52093 4.79867 3.60004C4.79867 3.67916 4.81426 3.7575 4.84454 3.83059C4.87482 3.90368 4.91921 3.9701 4.97517 4.02604L6.35549 5.40003H0.600141C0.440974 5.40003 0.288325 5.46325 0.175777 5.57577C0.0632289 5.68829 0 5.8409 0 6.00003C0 6.15916 0.0632289 6.31177 0.175777 6.42429C0.288325 6.53681 0.440974 6.60003 0.600141 6.60003H6.35549ZM6.00141 5.98159e-05C4.8798 -0.00494643 3.77923 0.304386 2.82454 0.89297C1.86985 1.48155 1.09925 2.32583 0.600141 3.33004C0.528516 3.47326 0.51673 3.63906 0.567377 3.79096C0.618023 3.94286 0.726954 4.06843 0.870204 4.14004C1.01345 4.21165 1.17929 4.22343 1.33123 4.1728C1.48317 4.12216 1.60877 4.01326 1.68039 3.87004C2.0598 3.10404 2.63692 2.45322 3.35212 1.98484C4.06731 1.51647 4.89464 1.24752 5.7486 1.20581C6.60256 1.16409 7.45217 1.35112 8.20964 1.74756C8.9671 2.144 9.60494 2.73546 10.0572 3.46084C10.5095 4.18622 10.7599 5.01918 10.7824 5.87366C10.8049 6.72814 10.5988 7.57313 10.1853 8.3213C9.77184 9.06948 9.16604 9.6937 8.4305 10.1295C7.69497 10.5652 6.85638 10.7967 6.00141 10.8C5.10653 10.8039 4.22868 10.5554 3.46863 10.0832C2.70857 9.61089 2.09711 8.93395 1.7044 8.13002C1.63277 7.9868 1.50718 7.8779 1.35524 7.82726C1.2033 7.77663 1.03746 7.78841 0.89421 7.86002C0.750959 7.93163 0.642029 8.0572 0.591382 8.2091C0.540736 8.361 0.552521 8.5268 0.624146 8.67002C1.09995 9.62732 1.82294 10.4401 2.71832 11.0244C3.6137 11.6087 4.64896 11.9432 5.71701 11.9934C6.78507 12.0435 7.84713 11.8075 8.79335 11.3097C9.73957 10.8119 10.5356 10.0704 11.099 9.16191C11.6625 8.25341 11.973 7.21091 11.9983 6.14223C12.0237 5.07356 11.763 4.01751 11.2432 3.08334C10.7234 2.14917 9.96344 1.37079 9.04188 0.828719C8.12032 0.286645 7.07064 0.000561685 6.00141 5.98159e-05V5.98159e-05Z" fill="#0BF1FF"/>
</svg>