<svg width="17" height="16" viewBox="0 0 17 16" fill="none" xmlns="http://www.w3.org/2000/svg">
    <path d="M7.65174 3.26566C7.93221 3.22267 8.21557 3.20128 8.49932 3.20169C11.0421 3.20169 13.4329 5.03278 14.8242 7.99932C14.6114 8.45077 14.3711 8.88871 14.1045 9.31067C14.0199 9.44165 13.9755 9.59452 13.9766 9.75045C13.9784 9.92495 14.0372 10.0941 14.1441 10.232C14.251 10.37 14.4001 10.4692 14.5686 10.5145C14.7371 10.5598 14.9158 10.5487 15.0775 10.4829C15.2391 10.4172 15.3748 10.3003 15.4639 10.1503C15.8364 9.56489 16.16 8.94977 16.4314 8.31116C16.4743 8.21139 16.4964 8.10392 16.4964 7.99532C16.4964 7.88671 16.4743 7.77925 16.4314 7.67948C14.8162 3.92933 11.7777 1.60248 8.49932 1.60248C8.12404 1.60059 7.74936 1.63271 7.37987 1.69843C7.27487 1.71628 7.1744 1.75464 7.08422 1.81132C6.99404 1.868 6.91591 1.94188 6.85428 2.02875C6.79265 2.11562 6.74874 2.21378 6.72505 2.31763C6.70135 2.42147 6.69835 2.52897 6.7162 2.63397C6.73405 2.73898 6.77241 2.83944 6.82908 2.92962C6.88576 3.0198 6.95964 3.09794 7.04652 3.15956C7.13339 3.22119 7.23155 3.2651 7.33539 3.2888C7.43924 3.31249 7.54673 3.31549 7.65174 3.29764V3.26566ZM1.8706 0.235157C1.79604 0.160603 1.70753 0.101464 1.61012 0.0611153C1.51271 0.020767 1.40831 0 1.30288 0C1.19744 0 1.09304 0.020767 0.995629 0.0611153C0.898219 0.101464 0.809711 0.160603 0.735157 0.235157C0.584588 0.385725 0.5 0.58994 0.5 0.802876C0.5 1.01581 0.584588 1.22003 0.735157 1.3706L3.21393 3.84137C2.08295 4.93006 1.18282 6.23538 0.56724 7.67948C0.523211 7.78036 0.500485 7.88925 0.500485 7.99932C0.500485 8.10939 0.523211 8.21828 0.56724 8.31916C2.18244 12.0693 5.22094 14.3962 8.49932 14.3962C9.93629 14.3862 11.3393 13.9584 12.5373 13.1648L15.128 15.7635C15.2024 15.8384 15.2908 15.8979 15.3882 15.9385C15.4857 15.9791 15.5902 16 15.6958 16C15.8013 16 15.9058 15.9791 16.0033 15.9385C16.1007 15.8979 16.1891 15.8384 16.2635 15.7635C16.3384 15.6891 16.3979 15.6007 16.4385 15.5033C16.4791 15.4058 16.5 15.3013 16.5 15.1958C16.5 15.0902 16.4791 14.9857 16.4385 14.8882C16.3979 14.7908 16.3384 14.7024 16.2635 14.628L1.8706 0.235157ZM6.95608 7.58352L8.91511 9.54255C8.77997 9.58131 8.6399 9.60016 8.49932 9.59853C8.07518 9.59853 7.66842 9.43004 7.36851 9.13013C7.0686 8.83022 6.90011 8.42345 6.90011 7.99932C6.89847 7.85874 6.91733 7.71867 6.95608 7.58352ZM8.49932 12.7969C5.95657 12.7969 3.56576 10.9659 2.18244 7.99932C2.69906 6.85888 3.43228 5.82965 4.34137 4.96882L5.75667 6.40011C5.42424 7.00685 5.29749 7.70502 5.39546 8.38989C5.49343 9.07476 5.81082 9.7094 6.30003 10.1986C6.78923 10.6878 7.42387 11.0052 8.10875 11.1032C8.79362 11.2011 9.49179 11.0744 10.0985 10.742L11.3699 11.9973C10.4992 12.5098 9.50956 12.7855 8.49932 12.7969Z" fill="#0BF1FF"/>
</svg>