<svg width="17" height="14" viewBox="0 0 17 14" fill="none" xmlns="http://www.w3.org/2000/svg">
    <path d="M16.4332 6.8C14.8178 2.98938 11.7789 0.625 8.5 0.625C5.22114 0.625 2.1822 2.98938 0.566765 6.8C0.522729 6.90251 0.5 7.01315 0.5 7.125C0.5 7.23685 0.522729 7.34749 0.566765 7.45C2.1822 11.2606 5.22114 13.625 8.5 13.625C11.7789 13.625 14.8178 11.2606 16.4332 7.45C16.4773 7.34749 16.5 7.23685 16.5 7.125C16.5 7.01315 16.4773 6.90251 16.4332 6.8V6.8ZM8.5 12C5.96488 12 3.56572 10.1394 2.1822 7.125C3.56572 4.11062 5.96488 2.25 8.5 2.25C11.0351 2.25 13.4343 4.11062 14.8178 7.125C13.4343 10.1394 11.0351 12 8.5 12ZM8.5 3.875C7.86732 3.875 7.24885 4.06561 6.72279 4.42272C6.19674 4.77984 5.78673 5.28742 5.54461 5.88128C5.3025 6.47514 5.23915 7.12861 5.36258 7.75904C5.48601 8.38948 5.79067 8.96858 6.23805 9.4231C6.68542 9.87762 7.25541 10.1872 7.87593 10.3126C8.49645 10.438 9.13964 10.3736 9.72416 10.1276C10.3087 9.88162 10.8083 9.46506 11.1598 8.9306C11.5113 8.39614 11.6989 7.76779 11.6989 7.125C11.6989 6.26305 11.3619 5.4364 10.762 4.8269C10.162 4.21741 9.3484 3.875 8.5 3.875V3.875ZM8.5 8.75C8.18366 8.75 7.87442 8.6547 7.6114 8.47614C7.34837 8.29758 7.14337 8.04379 7.02231 7.74686C6.90125 7.44993 6.86958 7.1232 6.93129 6.80798C6.993 6.49276 7.14534 6.20321 7.36902 5.97595C7.59271 5.74869 7.8777 5.59392 8.18796 5.53122C8.49823 5.46852 8.81982 5.5007 9.11208 5.6237C9.40434 5.74669 9.65414 5.95497 9.82989 6.2222C10.0056 6.48943 10.0994 6.80361 10.0994 7.125C10.0994 7.55598 9.93093 7.9693 9.63098 8.27405C9.33102 8.57879 8.9242 8.75 8.5 8.75Z" fill="#0BF1FF"/>
</svg>