<svg width="183" height="78" viewBox="0 0 183 78" fill="none" xmlns="http://www.w3.org/2000/svg">
    <g clip-path="url(#clip0_150_110590)">
        <path d="M72.1601 42.7856C72.1601 44.3923 71.3544 45.1956 69.7429 45.1956H62.2874C60.7091 45.1956 59.9199 44.3923 59.9199 42.7856V36.2974H63.8323V41.8081H68.2309V18.8203H72.1601V42.7856Z" fill="white"/>
        <path d="M88.5982 45.1963H84.7019L83.9137 40.1906H78.9938L78.2042 45.1963H74.3262V45.126L79.4135 18.7852H83.5473L88.5982 45.1963ZM83.3595 36.8038L81.4447 24.9055L79.5144 36.8038H83.3595Z" fill="white"/>
        <path d="M104.248 45.196H100.151L95.8182 32.9433V30.5677H99.6808V22.2082H94.7273V45.196H90.7988V18.8242H101.225C102.803 18.8242 103.593 19.6332 103.593 21.2511V30.8371C103.593 31.9492 103.217 32.6684 102.467 32.9947C102.065 33.1625 101.214 33.2467 99.9155 33.2471L104.248 45.196Z" fill="white"/>
        <path d="M119.727 18.8203L114.69 45.2294H110.779L105.758 18.8203H109.703L112.646 36.9043C112.667 37.42 112.701 38.1727 112.747 39.1625C112.735 38.6467 112.768 37.894 112.847 36.9043L115.802 18.8203H119.727Z" fill="white"/>
        <path d="M135.159 18.9722L131.683 29.9942C131.257 31.0842 130.681 32.9211 129.954 35.5049V45.1956H126.008V35.5049C125.81 34.5624 125.553 33.6336 125.237 32.7242C124.643 31.0505 124.324 30.1405 124.279 29.9942L120.821 18.9722C120.81 18.961 120.81 18.9103 120.821 18.8203H124.867L128.007 30.2832L131.13 18.8203H135.16L135.159 18.9722Z" fill="white"/>
        <path d="M149.766 42.7864C149.766 44.3931 148.972 45.1965 147.384 45.1965H139.474C137.895 45.1965 137.106 44.3931 137.105 42.7864V36.4994H141.039V41.8757H145.841V36.7026L137.965 29.2201C137.395 28.6692 137.109 27.966 137.109 27.1104V21.2453C137.109 19.6278 137.898 18.8188 139.477 18.8184H147.385C148.973 18.8184 149.767 19.6154 149.767 21.2094V27.1075H145.839V22.1356H141.039V26.905L148.913 34.3545C149.484 34.8941 149.77 35.6075 149.77 36.4945L149.766 42.7864Z" fill="white"/>
        <path d="M161.061 43.8459C161.061 44.77 160.601 45.2318 159.682 45.2313H154.974C154.08 45.2313 153.633 44.7695 153.633 43.8459V31.4688C153.633 30.5395 154.08 30.0747 154.974 30.0742H159.682C160.602 30.0742 161.061 30.5391 161.061 31.4688V35.0131H158.813V32.0222H155.892V43.2847H158.815V40.099H161.063L161.061 43.8459Z" fill="#CDCE3A"/>
        <path d="M170.266 43.8459C170.266 44.77 169.806 45.2318 168.886 45.2313H164.179C163.285 45.2313 162.838 44.7695 162.838 43.8459V31.4688C162.838 30.5395 163.285 30.0747 164.179 30.0742H168.886C169.807 30.0742 170.267 30.5391 170.266 31.4688V35.0131H168.018V32.0222H165.095V43.2847H168.018V40.099H170.266V43.8459Z" fill="#CDCE3A"/>
        <path d="M49.0749 45.0428C49.0749 45.0428 46.1862 49.0788 45.2984 50.0978C44.4107 51.1168 40.2959 56.2625 39.549 57.5726C38.8021 58.8828 37.3525 62.3237 36.7254 64.2141C36.0983 66.1044 34.9598 70.0018 34.7391 70.5236C34.5184 71.0454 33.5207 73.0012 33.1452 73.2536C33.0835 73.2916 31.2688 73.4435 29.6511 73.1706C28.0333 72.8978 26.8688 72.9013 26.625 72.9428V39.0195C26.625 39.0195 33.0352 42.4823 35.4418 42.9415C35.5119 42.9556 35.582 42.9655 35.6478 42.9795C38.0062 43.4015 40.7366 43.4394 44.3582 42.4577C46.1553 41.9704 47.4018 41.4246 48.0835 41.0822L48.1038 41.0723C48.4997 40.8719 48.6993 40.7474 48.6993 40.7474C48.7337 41.0097 48.7617 41.2552 48.775 41.445C48.8304 42.0948 49.0749 45.0428 49.0749 45.0428Z" fill="#CDCE3A"/>
        <path d="M31.1322 9.0563C31.1357 9.04576 31.1385 9.03943 31.142 9.02888C31.1358 9.04452 31.1314 9.06079 31.1287 9.0774C30.5297 11.4234 30.1268 13.6872 30.1268 13.6872H26.625V1.21931C26.625 1.21931 32.6505 1.04632 32.8971 1.42326C32.4711 1.6061 31.2247 8.53098 31.1322 9.0563Z" fill="#CDCE3A"/>
        <path d="M42.5407 62.5425C40.2062 65.5799 34.1211 75.5906 33.4485 76.4232C32.7759 77.2559 30.9627 77.9261 30.5668 77.9851C30.1709 78.0442 26.625 77.8881 26.625 77.8881V72.9436C26.8688 72.9021 28.0326 72.895 29.6511 73.1714C31.2695 73.4478 33.0842 73.2924 33.1452 73.2544C33.5207 73.0019 34.5156 71.0497 34.7391 70.5244C34.9626 69.9991 36.099 66.1052 36.7254 64.2149C37.0757 63.1712 37.6727 61.6508 38.2612 60.2823L40.9811 56.541C42.5225 56.9384 42.4819 58.1128 42.4819 58.1128C42.4616 58.2858 42.0447 58.873 42.0447 58.873C42.0496 58.927 42.0496 58.9814 42.0447 59.0354C42.0234 59.2012 41.9923 59.3656 41.9515 59.5277C41.9515 59.5277 41.6901 59.8835 41.7728 60.7936C41.8555 61.7036 41.9382 62.705 41.9515 62.7704C41.9648 62.8358 42.4475 62.6529 42.5407 62.5425Z" fill="#282A2D"/>
        <path opacity="0.45" d="M43.2527 57.0797C43.2387 57.0938 43.2282 57.1071 43.2148 57.1212C43.228 57.1076 43.2395 57.0925 43.2492 57.0762L43.2527 57.0797Z" fill="white"/>
        <path opacity="0.19" d="M44.7888 50.7051C44.5275 51.0159 44.2108 51.4083 43.8633 51.8422C43.9663 51.6446 44.3243 51.2023 44.7888 50.7051Z" fill="white"/>
        <path d="M26.625 61.7582V56.7651C27.0755 55.5591 27.8862 53.1786 28.3766 50.5062C29.0856 46.6496 26.625 45.3296 26.625 45.3296V44.3184C27.5127 44.67 29.7814 45.8388 29.8227 48.5892C29.8788 52.0105 28.797 59.5915 26.625 61.7582Z" fill="#F0F49D"/>
        <path d="M47.3562 48.6058C46.7746 48.7648 45.69 49.7493 44.8773 50.6101H44.8633C45.0461 50.3921 45.194 50.2156 45.2977 50.0981C45.5898 49.7634 46.0964 49.103 46.6436 48.3703C46.6436 48.3703 47.1291 48.2908 47.3562 48.6058Z" fill="#101011"/>
        <path opacity="0.43" d="M47.4539 48.588H47.4742C47.4638 48.5875 47.4534 48.5886 47.4434 48.5915C47.4447 48.5902 47.4464 48.5892 47.4482 48.5886C47.45 48.588 47.452 48.5878 47.4539 48.588Z" fill="white"/>
        <path d="M48.7036 40.7491C48.7036 40.7491 48.5039 40.8736 48.108 41.074L48.0877 41.0839C47.406 41.4263 46.1595 41.9721 44.3624 42.4594C40.7408 43.4439 38.0104 43.406 35.652 42.9812C35.582 42.9671 35.5119 42.9573 35.4461 42.9432C33.0359 42.484 26.625 39.0212 26.625 39.0212C26.625 39.0212 35.273 38.6478 35.4208 38.7308C35.4272 38.7347 35.4344 38.7371 35.4418 38.7378C36.2126 39.1422 37.3658 40.3272 38.1442 40.3068C38.9948 40.2857 43.5111 41.1289 48.4997 39.2772L48.7036 40.7491Z" fill="#8A8D28"/>
        <path opacity="0.42" d="M45.8862 4.29929C45.8484 4.10238 45.8239 3.96384 45.8105 3.89844C45.8467 4.02974 45.872 4.16381 45.8862 4.29929Z" fill="white"/>
        <path d="M41.6602 35.316L47.2099 34.0923L47.1413 32.3926L43.4244 33.5185L41.6602 35.316Z" fill="white"/>
        <path d="M26.625 37.9994V39.0205L29.1487 37.9727L26.625 37.9994Z" fill="#403E12"/>
        <path d="M48.4995 39.2779C43.5096 41.1282 38.9933 40.2864 38.1448 40.3061C37.2963 40.3258 36.0127 38.9284 35.2477 38.6527C34.4826 38.3771 29.1465 37.9762 29.1465 37.9762L47.2076 34.0957L48.4995 39.2779Z" fill="#B4B433"/>
        <path d="M35.4418 38.7364C35.4344 38.7357 35.4272 38.7333 35.4208 38.7294C35.273 38.6464 26.625 39.0198 26.625 39.0198C26.742 38.9403 29.1473 37.9727 29.1473 37.9727C29.1473 37.9727 34.4841 38.377 35.2478 38.6499C35.3143 38.6744 35.3791 38.7033 35.4418 38.7364Z" fill="#60601B"/>
        <path d="M48.1064 41.0722L48.086 41.0821C47.4043 41.4246 46.1579 41.9703 44.3607 42.4576C40.7391 43.4422 38.0087 43.4042 35.6504 42.9794L39.3827 41.9738C39.3827 41.9738 42.3023 41.7319 43.0632 41.5455C44.1842 41.2642 46.5811 40.5293 46.7674 40.3535C46.7674 40.3535 48.1064 41.0582 48.1064 41.0722Z" fill="white"/>
        <path opacity="0.37" d="M47.9488 31.7173C47.9285 31.3481 47.9109 30.9571 47.8906 30.5879C47.9109 30.9592 47.932 31.3502 47.9488 31.7173Z" fill="white"/>
        <path d="M38.1641 2.41425L39.7973 0C39.7973 0 44.7984 2.64421 45.0338 2.80807C45.2692 2.97192 45.7919 3.29401 45.8963 4.37631C46.0007 5.45861 46.1969 7.72236 46.1969 7.72236C46.1969 7.72236 46.0273 6.69914 44.3864 5.79335C42.7455 4.88757 38.1641 2.41425 38.1641 2.41425Z" fill="#B4B433"/>
        <path opacity="0.34" d="M48.025 33.0947V33.118C48.0222 33.1083 48.021 33.0981 48.0216 33.0879C48.0216 33.0913 48.0216 33.0913 48.025 33.0947Z" fill="white"/>
        <path opacity="0.25" d="M49.4805 41.3108C49.4938 41.2728 49.5043 41.2349 49.5183 41.1934C49.5078 41.2349 49.4938 41.2728 49.484 41.3108H49.4805Z" fill="white"/>
        <path opacity="0.25" d="M48.025 33.0947V33.118C48.0222 33.1083 48.021 33.0981 48.0216 33.0879C48.0216 33.0913 48.0216 33.0913 48.025 33.0947Z" fill="white"/>
        <path d="M48.0206 33.084C47.9659 32.0439 47.8209 29.2724 47.7971 28.8751C47.7733 28.4159 47.4972 19.4558 47.4699 19.1513C47.4699 19.1098 47.4559 18.896 47.4355 18.5605C47.9001 19.915 49.2243 23.638 49.2243 23.7519C49.2243 23.8834 49.7 24.7899 49.5136 26.2421C49.4436 26.7914 49.3672 32.0924 49.4702 34.0932C49.5732 36.0939 49.8387 37.8668 49.9284 38.2191C50.0076 38.5166 48.5061 34.4146 48.0206 33.084Z" fill="#101011"/>
        <path d="M52.9231 39.5844C52.9995 38.2848 53.0373 33.9415 53.0058 31.4499C52.968 28.7579 52.5448 25.5342 52.4824 25.0645C52.5525 25.4372 52.9203 27.4379 52.9617 27.7938C53.0093 28.1876 53.23 32.0273 53.23 32.3135C53.23 32.5998 53.3638 38.4817 52.9231 39.5844Z" fill="#43454B"/>
        <path opacity="0.3" d="M49.4805 41.3108C49.4938 41.2728 49.5043 41.2349 49.5183 41.1934C49.5078 41.2349 49.4938 41.2728 49.484 41.3108H49.4805Z" fill="white"/>
        <path d="M49.2784 41.8827C49.2749 41.7962 48.0663 33.9001 48.0425 33.4304C48.039 33.3678 48.032 33.2503 48.0215 33.0879C48.4832 34.3537 49.8495 38.0809 49.9293 38.23C50.0961 39.9199 49.2784 41.8827 49.2784 41.8827Z" fill="#43454B"/>
        <path opacity="0.46" d="M49.3512 47.5403L49.3582 47.5059C49.3512 47.5438 49.3477 47.5649 49.3477 47.5649L49.3512 47.5403Z" fill="white"/>
        <path d="M52.0399 40.627C52.0399 40.9237 52.0021 43.4153 51.9775 43.5848C51.9502 43.7648 51.6504 45.8451 51.375 46.2972C51.4787 45.9105 51.5439 45.568 51.5922 45.4161C51.6917 45.1087 51.7779 41.2669 51.7884 40.8063C51.8711 40.7444 51.9572 40.6853 52.0399 40.627Z" fill="#43454B"/>
        <path d="M51.7873 40.8066C51.7768 41.2701 51.6906 45.1091 51.5911 45.4164C51.4874 45.7448 51.3108 46.9474 50.8092 47.5663C50.3075 48.1851 49.9551 48.4573 49.6973 48.5712C51.4327 46.626 51.2674 41.3277 51.2604 41.166C51.4117 41.0697 51.5946 40.9417 51.7873 40.8066Z" fill="#101011"/>
        <path d="M52.8791 39.9607C52.7684 40.1196 51.1745 41.2702 50.9404 41.3496C50.7303 41.42 49.6975 41.332 49.481 41.3117C49.7115 40.6084 50.0415 39.3559 49.9287 38.2293C49.9315 38.2364 49.9315 38.2328 49.9287 38.2188C49.839 37.8671 49.5784 36.0936 49.4705 34.0928C49.3626 32.0921 49.4432 26.791 49.5153 26.2418C49.701 24.7903 49.226 23.8817 49.226 23.7502C49.1925 23.6169 49.1523 23.4855 49.1055 23.3563L50.1901 23.3184C50.1901 23.3184 51.3111 23.9991 51.419 24.1306C51.5269 24.2621 52.4699 25.0047 52.4699 25.0047C52.4699 25.0047 52.9604 28.5365 53.0031 31.4493C53.0459 34.3622 52.9856 39.8039 52.8791 39.9607Z" fill="#282A2D"/>
        <path d="M49.319 44.2864C49.3015 44.4179 49.0745 45.0438 49.0745 45.0438C49.0745 45.0438 48.83 42.0958 48.7781 41.446C48.7263 40.7962 48.5203 39.4417 48.4979 39.2765C48.4754 39.1112 47.2073 34.0928 47.2073 34.0928L47.1281 32.3959L47.1379 32.3924C47.1379 32.3924 46.6664 15.8443 46.6664 15.7332C46.6664 15.6221 46.4289 9.57201 46.281 8.16903C46.2422 7.81766 46.1269 7.47914 45.9433 7.17745V7.15706C46.058 7.32637 46.142 7.51469 46.1913 7.71333C46.1773 7.5333 45.9952 5.41512 45.8957 4.37501C45.8922 4.3511 45.8922 4.33 45.8887 4.30469C46.143 5.6282 46.8801 9.47074 46.9214 9.7436C46.9733 10.0685 47.4448 18.8493 47.4686 19.1495C47.4924 19.4498 47.772 28.4141 47.7958 28.8733C47.8196 29.3326 48.013 32.9578 48.0403 33.4283C48.0677 33.8987 49.2728 41.7969 49.2763 41.8806C49.2798 41.9643 49.3323 44.1521 49.319 44.2864Z" fill="#282A2D"/>
        <path d="M50.1461 41.3634L49.7846 44.1595C49.7776 44.2249 49.7678 44.284 49.7608 44.3423L49.7089 44.7291C49.7019 44.7812 49.6949 44.8227 49.6914 44.8571C49.6897 44.8808 49.6865 44.9043 49.6816 44.9274C49.6781 44.9408 49.6781 44.9654 49.6746 44.9978L49.6606 45.1117L49.5905 45.6441C49.5527 45.9654 49.5044 46.3473 49.463 46.6842L49.4357 46.8951C49.433 46.9301 49.4283 46.9648 49.4217 46.9992L49.3873 47.2686L49.3705 47.4092C49.3635 47.4507 49.36 47.4795 49.3565 47.5091L49.3495 47.5435L49.346 47.5681C49.346 47.5681 49.3292 47.6335 49.3047 47.7334C49.2528 47.6124 49.3187 44.2875 49.3187 44.2875C49.332 44.1532 49.2844 41.9668 49.2773 41.8831C49.2773 41.8831 49.367 41.6651 49.4805 41.3128C49.4938 41.2748 49.5044 41.2368 49.5184 41.1953C49.5079 41.2368 49.4938 41.2748 49.484 41.3128C49.5814 41.3226 49.8743 41.3465 50.1461 41.3634Z" fill="#101011"/>
        <path d="M49.6972 48.5705C49.6628 48.6092 48.9363 49.0269 48.9678 48.9784C48.9993 48.9299 49.3461 47.5656 49.3461 47.5656L49.3496 47.541L49.3567 47.5065C49.3567 47.4791 49.3637 47.4481 49.3707 47.4066L49.3875 47.266L49.4218 46.9966C49.4284 46.9622 49.4331 46.9275 49.4358 46.8926L49.4631 46.6816C49.5045 46.3426 49.5528 45.9629 49.5907 45.6415L50.1449 41.3601C50.4791 41.3805 50.8266 41.3875 50.9401 41.3496C51.0518 41.2975 51.1589 41.2361 51.2603 41.166C51.2673 41.3242 51.4326 46.6246 49.6972 48.5705Z" fill="#282A2D"/>
        <path d="M49.306 47.7319C49.2303 48.0329 49.065 48.6616 48.9998 48.893L48.9858 48.9345L48.969 48.9795L48.5416 49.7017C48.5416 49.0688 48.0182 48.7242 47.5915 48.5927C47.5915 48.5547 47.5215 48.2333 47.3813 48.0779C47.3022 47.9879 47.106 47.9738 46.9238 48.002C47.9748 46.5814 49.079 45.0406 49.079 45.0406C49.079 45.0406 49.306 44.4147 49.3235 44.2832C49.32 44.2867 49.2556 47.6103 49.306 47.7319Z" fill="#282A2D"/>
        <path d="M47.5911 48.5944C47.5762 48.5932 47.5612 48.5932 47.5463 48.5944H47.5392C47.5181 48.5878 47.4958 48.5866 47.4741 48.5908H47.4538C47.4519 48.5906 47.4499 48.5908 47.4481 48.5914C47.4463 48.592 47.4446 48.593 47.4433 48.5944C47.4302 48.5931 47.4171 48.5956 47.4054 48.6014C47.3936 48.6016 47.382 48.604 47.3711 48.6084H47.3571C47.1301 48.2934 46.6445 48.3728 46.6445 48.3728C46.7342 48.2519 46.8267 48.1316 46.9199 48.0072C47.102 47.979 47.2982 47.9931 47.3774 48.0831C47.5189 48.2364 47.5911 48.5578 47.5911 48.5944Z" fill="#43454B"/>
        <path opacity="0.64" d="M44.7888 50.7051C44.5275 51.0159 44.2108 51.4083 43.8633 51.8422C43.9663 51.6446 44.3243 51.2023 44.7888 50.7051Z" fill="white"/>
        <path d="M28.3766 50.5067C27.8862 53.179 27.0748 55.5588 26.625 56.7656V45.3301C26.625 45.3301 29.087 46.6501 28.3766 50.5067Z" fill="#F0F2BA"/>
        <path d="M48.5404 49.7044V49.7079C48.5404 50.1679 48.2685 50.779 47.4943 51.5743C46.7846 52.3029 42.4812 58.1146 42.4812 58.1146C42.4812 58.1146 42.5191 56.9401 40.9805 56.5428C40.9805 56.5428 43.5448 52.4583 43.8622 51.8465C44.1509 51.2902 46.4167 48.8675 47.3563 48.6116H47.3703C47.3812 48.6071 47.3929 48.6047 47.4046 48.6045C47.4168 48.6002 47.4296 48.5978 47.4425 48.5975C47.4525 48.5946 47.4629 48.5934 47.4733 48.594C47.4951 48.5932 47.5169 48.5944 47.5385 48.5975H47.5455C47.5604 48.5964 47.5754 48.5964 47.5903 48.5975C48.017 48.7269 48.5369 49.0722 48.5404 49.7044Z" fill="#282A2D"/>
        <path d="M42.5414 62.5422C42.4482 62.6526 41.9697 62.8319 41.9557 62.77C41.9417 62.7081 41.8632 61.7025 41.777 60.7932C41.6908 59.8839 41.9557 59.5273 41.9557 59.5273C41.9143 59.6736 42.5414 62.5422 42.5414 62.5422Z" fill="#101011"/>
        <path d="M48.5376 49.7988C48.5376 49.7988 48.5173 50.9078 47.7389 52.6821C46.9604 54.4564 46.0314 57.4642 45.9214 57.7547C45.8114 58.0451 45.431 59.2406 44.5201 60.2498C43.6093 61.2589 42.5408 62.5445 42.5408 62.5445C42.5408 62.5445 41.9137 59.6759 41.9551 59.5276C41.9959 59.3655 42.027 59.2011 42.0483 59.0353C42.0532 58.9812 42.0532 58.9269 42.0483 58.8728C42.0483 58.8728 42.4651 58.2856 42.4855 58.1126L42.592 57.9678L42.6711 57.8609C43.5049 56.7406 46.875 52.2145 47.4985 51.5752C48.2209 50.8284 48.5068 50.2447 48.5376 49.7988Z" fill="#43454B"/>
        <path d="M39.5495 57.5739C40.0771 56.6477 42.2932 53.7989 43.8605 51.8516C43.5403 52.4627 41.1406 56.2884 40.9879 56.5303L40.9809 56.5408L38.2617 60.2828C38.7403 59.1738 39.2153 58.159 39.5495 57.5739Z" fill="#101011"/>
        <path d="M31.5176 20.9863L29.1473 37.9761L26.625 38.0007V21.1628C26.625 21.1628 29.9411 21.1038 31.5176 20.9863Z" fill="#B4B433"/>
        <path d="M37.5093 2.0332C37.5093 2.0332 44.4253 5.80824 44.625 5.93201C44.8247 6.05578 46.1314 6.76395 46.282 8.16834C46.4327 9.57272 46.6674 15.6228 46.6674 15.7332C46.6674 15.8436 47.1417 32.3917 47.1417 32.3917L43.4283 33.5169L41.6627 35.3144L29.1465 37.9748L31.6274 20.1678C31.6274 20.1678 33.4491 8.24007 33.9396 6.84904C34.43 5.45802 35.2806 2.95657 37.5093 2.0332Z" fill="#CDCE3A"/>
        <path d="M32.6561 13.6875C32.1194 16.9667 31.6304 20.1665 31.6304 20.1665L31.5169 20.9851C29.9404 21.1025 26.625 21.1616 26.625 21.1616V13.6875H32.6561Z" fill="#282A2D"/>
        <path d="M33.4908 3.91152C32.6542 3.88691 31.7763 6.53393 31.1289 9.07758C31.1836 8.75268 32.4643 1.6098 32.898 1.42343C33.3415 1.23637 33.4908 3.91152 33.4908 3.91152Z" fill="#8A8D28"/>
        <path d="M35.0868 4.24349C34.5263 5.16263 34.1879 6.14226 33.9398 6.8455C33.7058 7.5164 33.1586 10.6367 32.6556 13.6881H30.127C30.127 13.6881 31.8786 3.86795 33.49 3.91226L35.0868 4.24349Z" fill="#60601B"/>
        <path d="M4.17383 45.0428C4.17383 45.0428 7.06256 49.0788 7.95097 50.0978C8.83939 51.1168 12.9528 56.2625 13.7004 57.5726C14.448 58.8828 15.8969 62.3237 16.5233 64.2141C17.1497 66.1044 18.2896 70.0018 18.5096 70.5236C18.7296 71.0454 19.728 73.0012 20.1036 73.2536C20.1652 73.2916 21.9799 73.4435 23.5977 73.1706C25.2154 72.8978 26.3799 72.9013 26.6244 72.9428V39.0195C26.6244 39.0195 20.2136 42.4823 17.8076 42.9415C17.7375 42.9556 17.6674 42.9655 17.6009 42.9795H17.5974C15.239 43.4015 12.5086 43.4394 8.88703 42.4577C7.08989 41.9704 5.84345 41.4246 5.16243 41.0822L5.14141 41.0723C4.74555 40.8719 4.54587 40.7474 4.54587 40.7474C4.51154 41.0097 4.48421 41.2552 4.4702 41.445C4.41835 42.0948 4.17383 45.0428 4.17383 45.0428Z" fill="#CDCE3A"/>
        <path d="M22.1184 9.0563C22.1149 9.04576 22.1114 9.03943 22.1079 9.02888C22.1147 9.0443 22.1192 9.06065 22.1212 9.0774C22.7203 11.4234 23.1231 13.6872 23.1231 13.6872H26.6263V1.21931C26.6263 1.21931 20.6008 1.04632 20.3535 1.42326C20.7788 1.6061 22.0252 8.53098 22.1184 9.0563Z" fill="#CDCE3A"/>
        <path d="M10.709 62.5425C13.0428 65.5799 19.1293 75.5906 19.8012 76.4232C20.4731 77.2559 22.2863 77.9261 22.6822 77.9851C23.0781 78.0442 26.6247 77.8881 26.6247 77.8881V72.9436C26.3802 72.9021 25.2164 72.895 23.5979 73.1714C21.9795 73.4478 20.1648 73.2924 20.1039 73.2544C19.7283 73.0019 18.7334 71.0497 18.5099 70.5244C18.2864 69.9991 17.15 66.1052 16.5236 64.2149C16.1733 63.1712 15.577 61.6508 14.9878 60.2823L12.2679 56.541C10.7265 56.9384 10.7671 58.1128 10.7671 58.1128C10.7882 58.2858 11.2043 58.873 11.2043 58.873C11.1994 58.927 11.1994 58.9814 11.2043 59.0354C11.2256 59.2012 11.2567 59.3656 11.2975 59.5277C11.2975 59.5277 11.5589 59.8835 11.4762 60.7936C11.3935 61.7036 11.3115 62.705 11.2975 62.7704C11.2835 62.8358 10.8015 62.6529 10.709 62.5425Z" fill="#282A2D"/>
        <path opacity="0.45" d="M9.99609 57.0797C10.0101 57.0938 10.0206 57.1071 10.0339 57.1212C10.0208 57.1076 10.0093 57.0925 9.9996 57.0762L9.99609 57.0797Z" fill="white"/>
        <path opacity="0.19" d="M8.46094 50.7051C8.72228 51.0159 9.03896 51.4083 9.38718 51.8422C9.28349 51.6446 8.92546 51.2023 8.46094 50.7051Z" fill="white"/>
        <path d="M26.6242 61.7582V56.7651C26.173 55.5591 25.3631 53.1786 24.8726 50.5062C24.1629 46.6496 26.6242 45.3296 26.6242 45.3296V44.3184C25.7358 44.67 23.4671 45.8388 23.4258 48.5892C23.3711 52.0105 24.4557 59.5915 26.6242 61.7582Z" fill="#F0F49D"/>
        <path d="M5.89258 48.6058C6.47481 48.7648 7.5587 49.7493 8.37144 50.6101H8.38545C8.20259 50.3921 8.05475 50.2156 7.95176 50.0981C7.65889 49.7634 7.15303 49.103 6.60513 48.3703C6.60513 48.3703 6.12029 48.2908 5.89258 48.6058Z" fill="#101011"/>
        <path opacity="0.43" d="M5.79641 48.588H5.77539C5.78579 48.5874 5.79622 48.5886 5.80622 48.5916C5.80499 48.5902 5.80345 48.5892 5.80175 48.5886C5.80004 48.588 5.79821 48.5878 5.79641 48.588Z" fill="white"/>
        <path d="M4.54688 40.7491C4.54688 40.7491 4.74656 40.8736 5.14242 41.074L5.16344 41.0839C5.84446 41.4263 7.0909 41.9721 8.88804 42.4594C12.5096 43.4439 15.24 43.406 17.5984 42.9812H17.6019C17.672 42.9671 17.742 42.9573 17.8086 42.9432C20.2146 42.484 26.6247 39.0212 26.6247 39.0212C26.6247 39.0212 17.976 38.6478 17.8282 38.7308C17.822 38.7346 17.8151 38.737 17.8079 38.7378C17.033 39.1422 15.8832 40.3272 15.1048 40.3068C14.2549 40.2857 9.73791 41.1289 4.74936 39.2772L4.54688 40.7491Z" fill="#8A8D28"/>
        <path opacity="0.42" d="M7.36328 4.29929C7.40112 4.10238 7.42564 3.96384 7.43965 3.89844C7.40292 4.02964 7.37737 4.16374 7.36328 4.29929Z" fill="white"/>
        <path d="M11.5888 35.316L6.03906 34.0923L6.10773 32.3926L9.82392 33.5185L11.5888 35.316Z" fill="white"/>
        <path d="M26.626 37.9994V39.0205L24.1016 37.9727L26.626 37.9994Z" fill="#403E12"/>
        <path d="M4.75 39.2768C9.73925 41.1271 14.2563 40.2853 15.1048 40.305C15.9532 40.3247 17.2375 38.9273 18.0019 38.6517C18.7663 38.376 24.1024 37.9751 24.1024 37.9751L6.03988 34.0918L4.75 39.2768Z" fill="#B4B433"/>
        <path d="M17.8086 38.7364C17.8158 38.7355 17.8227 38.7331 17.8289 38.7294C17.9767 38.6464 26.6254 39.0198 26.6254 39.0198C26.5084 38.9403 24.1031 37.9727 24.1031 37.9727C24.1031 37.9727 18.7671 38.377 18.0027 38.6499C17.9361 38.6742 17.8712 38.7031 17.8086 38.7364Z" fill="#60601B"/>
        <path d="M5.14258 41.0722L5.1636 41.0821C5.84462 41.4246 7.09106 41.9703 8.8882 42.4576C12.5098 43.4422 15.2402 43.4042 17.5985 42.9794L13.8662 41.9738C13.8662 41.9738 10.9474 41.7319 10.1865 41.5455C9.06546 41.2642 6.66787 40.5293 6.4815 40.3535C6.4815 40.3535 5.14258 41.0582 5.14258 41.0722Z" fill="white"/>
        <path opacity="0.37" d="M5.30078 31.7173C5.3218 31.3481 5.33862 30.9571 5.35963 30.5879C5.33862 30.9592 5.3183 31.3502 5.30078 31.7173Z" fill="white"/>
        <path d="M15.0867 2.41425L13.4528 0C13.4528 0 8.45161 2.64421 8.2169 2.80807C7.98219 2.97192 7.45811 3.29401 7.35721 4.37631C7.25632 5.45861 7.05664 7.72236 7.05664 7.72236C7.05664 7.72236 7.2262 6.69914 8.86709 5.79335C10.508 4.88757 15.0867 2.41425 15.0867 2.41425Z" fill="#B4B433"/>
        <path opacity="0.34" d="M5.22461 33.0947V33.118C5.22745 33.1083 5.2286 33.0981 5.22802 33.0879C5.22802 33.0913 5.22802 33.0913 5.22461 33.0947Z" fill="white"/>
        <path opacity="0.25" d="M3.7683 41.3108C3.75499 41.2728 3.74448 41.2349 3.73047 41.1934C3.74098 41.2349 3.75499 41.2728 3.7655 41.3108H3.7683Z" fill="white"/>
        <path opacity="0.25" d="M5.22461 33.0947V33.118C5.22745 33.1083 5.2286 33.0981 5.22802 33.0879C5.22802 33.0913 5.22802 33.0913 5.22461 33.0947Z" fill="white"/>
        <path d="M5.22852 33.084C5.28387 32.0439 5.4282 29.2724 5.45202 28.8751C5.47654 28.4159 5.7519 19.4558 5.77922 19.1513C5.77922 19.1098 5.79323 18.896 5.81355 18.5605C5.34903 19.915 4.02482 23.638 4.02482 23.7519C4.02482 23.8834 3.54908 24.7899 3.73545 26.2421C3.80552 26.7914 3.88259 32.0924 3.77889 34.0932C3.6752 36.0939 3.41036 37.8668 3.32138 38.2191C3.2422 38.5166 4.74297 34.4146 5.22852 33.084Z" fill="#101011"/>
        <path d="M0.325985 39.5844C0.250316 38.2848 0.21038 33.9415 0.24331 31.4499C0.281144 28.7579 0.704331 25.5342 0.766687 25.0645C0.696624 25.4372 0.329488 27.4379 0.288151 27.7938C0.239807 28.1876 0.0191052 32.0273 0.0191052 32.3135C0.0191052 32.5998 -0.114717 38.4817 0.325985 39.5844Z" fill="#43454B"/>
        <path opacity="0.3" d="M3.7683 41.3108C3.75499 41.2728 3.74448 41.2349 3.73047 41.1934C3.74098 41.2349 3.75499 41.2728 3.7655 41.3108H3.7683Z" fill="white"/>
        <path d="M3.97179 41.8827C3.97179 41.7962 5.1839 33.9001 5.20772 33.4304C5.21122 33.3678 5.21823 33.2503 5.22874 33.0879C4.76702 34.3537 3.40077 38.0809 3.3216 38.23C3.15344 39.9199 3.97179 41.8827 3.97179 41.8827Z" fill="#43454B"/>
        <path opacity="0.46" d="M3.89958 47.5403L3.89258 47.5059C3.89958 47.5438 3.90309 47.5649 3.90309 47.5649L3.89958 47.5403Z" fill="white"/>
        <path d="M1.21094 40.627C1.21094 40.9237 1.24877 43.4153 1.27259 43.5848C1.29992 43.7648 1.59979 45.8451 1.87514 46.2972C1.77215 45.9105 1.70629 45.568 1.65795 45.4161C1.55845 45.1087 1.47228 41.2669 1.46177 40.8063C1.37909 40.7444 1.29361 40.6853 1.21094 40.627Z" fill="#43454B"/>
        <path d="M1.46094 40.8066C1.47145 41.2701 1.55763 45.1091 1.65712 45.4164C1.76081 45.7448 1.93737 46.9474 2.43903 47.5663C2.94069 48.1851 3.29241 48.4573 3.55094 48.5712C1.81546 46.626 1.98081 41.3277 1.98782 41.166C1.83648 41.0697 1.65361 40.9417 1.46094 40.8066Z" fill="#101011"/>
        <path d="M0.369885 39.9613C0.479885 40.1202 2.07384 41.2707 2.31136 41.3516C2.52155 41.4219 3.55429 41.334 3.77079 41.3136C3.54028 40.6104 3.21028 39.3579 3.32378 38.2313C3.32051 38.2383 3.32051 38.2348 3.32378 38.2207C3.41276 37.8691 3.6741 36.0955 3.7813 34.0948C3.8885 32.094 3.80932 26.7929 3.73646 26.2437C3.55079 24.7922 4.02582 23.8836 4.02582 23.7521C4.05933 23.6189 4.09955 23.4874 4.14633 23.3583L3.06174 23.3203C3.06174 23.3203 1.94072 24.0011 1.83282 24.1326C1.72492 24.2641 0.781861 25.0067 0.781861 25.0067C0.781861 25.0067 0.291413 28.5384 0.248674 31.4513C0.205935 34.3641 0.262687 39.8044 0.369885 39.9613Z" fill="#282A2D"/>
        <path d="M3.92989 44.2864C3.94741 44.4179 4.17441 45.0438 4.17441 45.0438C4.17441 45.0438 4.41894 42.0958 4.47078 41.446C4.52263 40.7962 4.72862 39.4417 4.75104 39.2765C4.77346 39.1112 6.04232 34.0928 6.04232 34.0928L6.12149 32.3959L6.11098 32.3924C6.11098 32.3924 6.58251 15.8443 6.58251 15.7332C6.58251 15.6221 6.82003 9.57201 6.96786 8.16903C7.00666 7.81766 7.12195 7.47914 7.30557 7.17745V7.15706C7.19126 7.32658 7.10733 7.51483 7.05754 7.71333C7.07156 7.5333 7.25372 5.41512 7.35391 4.37501C7.35391 4.3511 7.35391 4.33 7.36092 4.30469C7.10589 5.6282 6.36882 9.47074 6.32748 9.7436C6.27633 10.0685 5.8048 18.8493 5.78028 19.1495C5.75576 19.4498 5.4776 28.4141 5.45308 28.8733C5.42856 29.3326 5.23658 32.9578 5.20856 33.4283C5.18053 33.8987 3.97613 41.7969 3.97263 41.8806C3.96913 41.9643 3.91658 44.1521 3.92989 44.2864Z" fill="#282A2D"/>
        <path d="M3.10352 41.3634L3.46505 44.1595C3.47205 44.2249 3.48256 44.284 3.48887 44.3423L3.54071 44.7291C3.54772 44.7812 3.55473 44.8227 3.55823 44.8571C3.56042 44.8807 3.56393 44.9042 3.56874 44.9274C3.56874 44.9408 3.56874 44.9654 3.57505 44.9978L3.58906 45.1117L3.65912 45.6441C3.69696 45.9654 3.7453 46.3473 3.78664 46.6842L3.81396 46.8951C3.81668 46.9301 3.82136 46.9648 3.82798 46.9992L3.86231 47.2686L3.87982 47.4092C3.88683 47.4507 3.88963 47.4795 3.89314 47.5091L3.90014 47.5435L3.90365 47.5681C3.90365 47.5681 3.92116 47.6335 3.94498 47.7334C3.99683 47.6124 3.93097 44.2875 3.93097 44.2875C3.91766 44.1532 3.966 41.9668 3.97231 41.8831C3.97231 41.8831 3.88333 41.6651 3.76912 41.3128C3.75581 41.2748 3.7453 41.2368 3.73129 41.1953C3.7418 41.2368 3.75581 41.2748 3.76632 41.3128C3.66823 41.3226 3.37536 41.3465 3.10352 41.3634Z" fill="#101011"/>
        <path d="M3.55079 48.5712C3.58512 48.6099 4.31168 49.0276 4.28085 48.9791C4.25003 48.9306 3.90181 47.5663 3.90181 47.5663L3.8983 47.5417L3.8913 47.5072C3.8913 47.4798 3.88499 47.4488 3.87799 47.4073L3.86047 47.2667L3.82614 46.9973C3.81952 46.9629 3.81484 46.9282 3.81213 46.8933L3.7848 46.6823C3.74346 46.3433 3.69512 45.9636 3.65728 45.6422L3.10308 41.3601C2.76957 41.3805 2.42136 41.3875 2.30785 41.3496C2.19616 41.2975 2.08905 41.2361 1.98766 41.166C1.98065 41.3249 1.8153 46.6253 3.55079 48.5712Z" fill="#282A2D"/>
        <path d="M3.9433 47.7319C4.01897 48.0329 4.18432 48.6616 4.24948 48.893L4.26349 48.9345L4.28101 48.9795L4.70769 49.7017C4.70769 49.0688 5.23107 48.7242 5.65776 48.5927C5.65776 48.5547 5.72783 48.2333 5.86795 48.0779C5.94713 47.9879 6.14331 47.9738 6.32547 48.002C5.27451 46.5814 4.1703 45.0406 4.1703 45.0406C4.1703 45.0406 3.9433 44.4147 3.92578 44.2832C3.92928 44.2867 3.99304 47.6103 3.9433 47.7319Z" fill="#282A2D"/>
        <path d="M5.6582 48.5944C5.67313 48.5933 5.68812 48.5933 5.70304 48.5944H5.71005C5.73115 48.5878 5.75353 48.5866 5.77521 48.5908H5.79623C5.79803 48.5906 5.79986 48.5908 5.80157 48.5914C5.80327 48.592 5.80481 48.593 5.80604 48.5944C5.81907 48.5929 5.83224 48.5953 5.84387 48.6014C5.85587 48.6017 5.86772 48.6041 5.8789 48.6084H5.89222C6.11992 48.2934 6.60477 48.3728 6.60477 48.3728C6.51579 48.2519 6.4226 48.1316 6.32942 48.0072C6.14725 47.979 5.95107 47.9931 5.8719 48.0831C5.73037 48.2364 5.6582 48.5578 5.6582 48.5944Z" fill="#43454B"/>
        <path opacity="0.64" d="M8.46094 50.7051C8.72228 51.0159 9.03896 51.4083 9.38718 51.8422C9.28349 51.6446 8.92546 51.2023 8.46094 50.7051Z" fill="white"/>
        <path d="M24.8727 50.5067C25.3631 53.179 26.1737 55.5588 26.6243 56.7656V45.3301C26.6243 45.3301 24.1629 46.6501 24.8727 50.5067Z" fill="#F0F2BA"/>
        <path d="M4.70898 49.7044V49.7079C4.70898 50.1679 4.98083 50.779 5.75574 51.5743C6.46479 52.3029 10.7681 58.1146 10.7681 58.1146C10.7681 58.1146 10.7303 56.9401 12.2689 56.5428C12.2689 56.5428 9.70454 52.4583 9.38785 51.8465C9.09849 51.2902 6.83332 48.8675 5.89307 48.6116H5.87975C5.86857 48.6072 5.85672 48.6048 5.84472 48.6045C5.83258 48.6001 5.8198 48.5977 5.80689 48.5975C5.79689 48.5946 5.78646 48.5934 5.77606 48.594C5.75428 48.5932 5.73247 48.5944 5.7109 48.5975H5.70389C5.68897 48.5964 5.67398 48.5964 5.65905 48.5975C5.23236 48.7269 4.71249 49.0722 4.70898 49.7044Z" fill="#282A2D"/>
        <path d="M10.709 62.5422C10.8015 62.6526 11.28 62.8319 11.294 62.77C11.308 62.7081 11.3872 61.7025 11.4727 60.7932C11.5582 59.8839 11.294 59.5273 11.294 59.5273C11.3354 59.6736 10.709 62.5422 10.709 62.5422Z" fill="#101011"/>
        <path d="M4.71094 49.7988C4.71094 49.7988 4.73126 50.9078 5.50967 52.6821C6.28808 54.4564 7.21712 57.4642 7.32712 57.7547C7.43712 58.0451 7.81757 59.2406 8.7284 60.2498C9.63923 61.2589 10.7084 62.5445 10.7084 62.5445C10.7084 62.5445 11.3348 59.6759 11.2934 59.5276C11.2526 59.3655 11.2215 59.2011 11.2003 59.0353C11.1953 58.9812 11.1953 58.9269 11.2003 58.8728C11.2003 58.8728 10.7841 58.2856 10.7631 58.1126L10.6566 57.9678L10.5788 57.8609C9.74573 56.7406 6.37496 52.2145 5.75209 51.5752C5.02763 50.8284 4.74177 50.2447 4.71094 49.7988Z" fill="#43454B"/>
        <path d="M13.7011 57.5739C13.1721 56.6477 10.9567 53.7989 9.38867 51.8516C9.70886 52.4627 12.1079 56.2884 12.2613 56.5303L12.2676 56.5408L14.9875 60.2828C14.5096 59.1738 14.0346 58.159 13.7011 57.5739Z" fill="#101011"/>
        <path d="M21.7324 20.9863L24.102 37.9761L26.6243 38.0007V21.1628C26.6243 21.1628 23.3096 21.1038 21.7324 20.9863Z" fill="#B4B433"/>
        <path d="M15.7391 2.0332C15.7391 2.0332 8.8231 5.80824 8.62412 5.93201C8.42514 6.05578 7.11704 6.76395 6.96711 8.16834C6.81717 9.57272 6.58105 15.6228 6.58105 15.7332C6.58105 15.8436 6.10742 32.3917 6.10742 32.3917L9.82081 33.5169L11.5857 35.3144L24.1012 37.9748L21.6189 20.165C21.6189 20.165 19.7972 8.23725 19.3068 6.84623C18.8163 5.45521 17.9685 2.95657 15.7391 2.0332Z" fill="#CDCE3A"/>
        <path d="M20.5938 13.6875C21.1304 16.9667 21.6195 20.1665 21.6195 20.1665L21.733 20.9851C23.3101 21.1025 26.6256 21.1616 26.6256 21.1616V13.6875H20.5938Z" fill="#282A2D"/>
        <path d="M19.7578 3.91152C20.5944 3.88691 21.4723 6.53393 22.119 9.07758C22.0699 8.75268 20.7857 1.6098 20.352 1.42343C19.9078 1.23637 19.7578 3.91152 19.7578 3.91152Z" fill="#8A8D28"/>
        <path d="M18.1621 4.24349C18.7226 5.16263 19.0603 6.14226 19.3084 6.8455C19.5424 7.5164 20.0896 10.6367 20.5926 13.6881H23.1205C23.1205 13.6881 21.3689 3.86795 19.7575 3.91226L18.1621 4.24349Z" fill="#60601B"/>
        <path d="M90.7208 51.7168H59.9102V55.7267H90.7208V51.7168Z" fill="white"/>
        <path d="M170.267 51.7168H107.17V55.7267H170.267V51.7168Z" fill="white"/>
        <path d="M170.268 59.4102H59.9102V63.4201H170.268V59.4102Z" fill="white"/>
    </g>
    <defs>
        <clipPath id="clip0_150_110590">
            <rect width="183" height="78" fill="white"/>
        </clipPath>
    </defs>
</svg>