<svg class="svg-icon" style="width: 1em;height: 1em;vertical-align: middle;fill: currentColor;overflow: hidden;" viewBox="0 0 1024 1024" version="1.1" xmlns="http://www.w3.org/2000/svg">
    <path d="M810.666667 256h64.085333A106.666667 106.666667 0 0 1 981.333333 362.666667v490.666666c0 70.677333-57.344 128-127.936 128h-1.706666L170.666667 981.397333A128 128 0 0 1 42.666667 853.418667v-704A106.794667 106.794667 0 0 1 149.248 42.666667h554.88A106.688 106.688 0 0 1 810.666667 149.504V256z m0 85.333333v512.149334c0 22.933333 18.112 41.6 40.96 42.517333h1.770666c23.466667 0 42.602667-19.136 42.602667-42.666667V362.666667a21.333333 21.333333 0 0 0-21.248-21.333334H810.666667z m-85.333334 512.149334V149.504C725.333333 137.578667 715.797333 128 704.106667 128H149.248C137.642667 128 128 137.642667 128 149.397333v704a42.666667 42.666667 0 0 0 42.688 42.645334L732.586667 896a127.68 127.68 0 0 1-7.253334-42.538667zM256 213.333333h341.333333a42.666667 42.666667 0 0 1 42.666667 42.666667v170.666667a42.666667 42.666667 0 0 1-42.666667 42.666666H256a42.666667 42.666667 0 0 1-42.666667-42.666666v-170.666667a42.666667 42.666667 0 0 1 42.666667-42.666667z m42.666667 85.333334v85.333333h256v-85.333333H298.666667z m-42.666667 341.333333a42.666667 42.666667 0 1 1 0-85.333333h341.333333a42.666667 42.666667 0 1 1 0 85.333333H256z m0 149.333333a42.666667 42.666667 0 1 1 0-85.333333h341.333333a42.666667 42.666667 0 1 1 0 85.333333H256z" fill="#0BF1FF" />
</svg>