<svg width="14" height="14" viewBox="0 0 14 14" fill="none" xmlns="http://www.w3.org/2000/svg">
<path d="M7.3125 0.625C6.02692 0.625 4.77022 1.00622 3.7013 1.72045C2.63238 2.43468 1.79926 3.44984 1.30729 4.63756C0.815316 5.82528 0.686595 7.13221 0.937399 8.39309C1.1882 9.65396 1.80727 10.8122 2.71631 11.7212C3.62535 12.6302 4.78354 13.2493 6.04441 13.5001C7.30529 13.7509 8.61222 13.6222 9.79994 13.1302C10.9877 12.6382 12.0028 11.8051 12.7171 10.7362C13.4313 9.66728 13.8125 8.41058 13.8125 7.125C13.8125 6.27141 13.6444 5.42617 13.3177 4.63756C12.9911 3.84894 12.5123 3.13239 11.9087 2.52881C11.3051 1.92522 10.5886 1.44644 9.79994 1.11978C9.01133 0.793127 8.16609 0.625 7.3125 0.625ZM7.3125 12.325C5.93338 12.325 4.61074 11.7771 3.63555 10.802C2.66036 9.82676 2.1125 8.50412 2.1125 7.125C2.11107 5.97017 2.49796 4.8484 3.211 3.94L10.4975 11.2265C9.5891 11.9395 8.46733 12.3264 7.3125 12.325ZM11.414 10.31L4.1275 3.0235C5.03591 2.31046 6.15768 1.92356 7.3125 1.925C8.69163 1.925 10.0143 2.47286 10.9895 3.44804C11.9646 4.42323 12.5125 5.74587 12.5125 7.125C12.5139 8.27982 12.127 9.40159 11.414 10.31Z" fill="#F7931A"/>
</svg>
