<svg width="15" height="16" viewBox="0 0 15 16" fill="none" xmlns="http://www.w3.org/2000/svg">
    <path d="M14.2046 3.18447C14.1116 3.09074 14.001 3.01635 13.8792 2.96558C13.7573 2.91481 13.6266 2.88867 13.4946 2.88867C13.3626 2.88867 13.2319 2.91481 13.11 2.96558C12.9881 3.01635 12.8775 3.09074 12.7846 3.18447L5.33458 10.6445L2.20458 7.50447C2.10806 7.41123 1.99412 7.33792 1.86926 7.28871C1.74441 7.23951 1.61108 7.21538 1.4769 7.2177C1.34272 7.22002 1.21031 7.24875 1.08723 7.30224C0.964154 7.35574 0.852817 7.43295 0.759579 7.52947C0.66634 7.62599 0.593026 7.73993 0.543822 7.86479C0.494618 7.98964 0.470488 8.12297 0.472809 8.25715C0.475131 8.39133 0.503858 8.52374 0.557352 8.64682C0.610845 8.76989 0.688057 8.88123 0.784579 8.97447L4.62458 12.8145C4.71754 12.9082 4.82814 12.9826 4.95 13.0334C5.07186 13.0841 5.20257 13.1103 5.33458 13.1103C5.46659 13.1103 5.5973 13.0841 5.71916 13.0334C5.84101 12.9826 5.95162 12.9082 6.04458 12.8145L14.2046 4.65447C14.3061 4.56083 14.3871 4.44718 14.4425 4.32068C14.4979 4.19418 14.5265 4.05757 14.5265 3.91947C14.5265 3.78137 14.4979 3.64476 14.4425 3.51826C14.3871 3.39176 14.3061 3.27811 14.2046 3.18447Z" fill="#0BF1FF"/>
</svg>