<svg width="15" height="16" viewBox="0 0 15 16" fill="none" xmlns="http://www.w3.org/2000/svg">
    <path d="M13.3464 8.00188C13.1741 8.00188 13.0088 8.07035 12.8869 8.19221C12.7651 8.31407 12.6966 8.47935 12.6966 8.6517V12.5506C12.6966 12.7229 12.6281 12.8882 12.5063 13.0101C12.3844 13.1319 12.2191 13.2004 12.0468 13.2004H2.94943C2.77709 13.2004 2.61181 13.1319 2.48995 13.0101C2.36809 12.8882 2.29962 12.7229 2.29962 12.5506V3.4532C2.29962 3.28086 2.36809 3.11558 2.48995 2.99372C2.61181 2.87185 2.77709 2.80339 2.94943 2.80339H6.8483C7.02065 2.80339 7.18593 2.73493 7.30779 2.61307C7.42965 2.4912 7.49812 2.32592 7.49812 2.15358C7.49812 1.98124 7.42965 1.81596 7.30779 1.69409C7.18593 1.57223 7.02065 1.50377 6.8483 1.50377H2.94943C2.43241 1.50377 1.93657 1.70915 1.57098 2.07474C1.20539 2.44033 1 2.93618 1 3.4532V12.5506C1 13.0676 1.20539 13.5634 1.57098 13.929C1.93657 14.2946 2.43241 14.5 2.94943 14.5H12.0468C12.5638 14.5 13.0597 14.2946 13.4253 13.929C13.7908 13.5634 13.9962 13.0676 13.9962 12.5506V8.6517C13.9962 8.47935 13.9278 8.31407 13.8059 8.19221C13.684 8.07035 13.5188 8.00188 13.3464 8.00188ZM3.59925 8.49574V11.2509C3.59925 11.4233 3.66771 11.5886 3.78957 11.7104C3.91144 11.8323 4.07672 11.9008 4.24906 11.9008H7.00426C7.08978 11.9012 7.17455 11.8849 7.25373 11.8525C7.3329 11.8202 7.40491 11.7725 7.46563 11.7123L11.9623 7.20911L13.8078 5.40264C13.8687 5.34223 13.917 5.27036 13.95 5.19117C13.983 5.11199 14 5.02705 14 4.94127C14 4.85549 13.983 4.77055 13.95 4.69137C13.917 4.61218 13.8687 4.54031 13.8078 4.47991L11.0526 1.69221C10.9922 1.63131 10.9203 1.58297 10.8411 1.54998C10.7619 1.51698 10.677 1.5 10.5912 1.5C10.5054 1.5 10.4205 1.51698 10.3413 1.54998C10.2621 1.58297 10.1903 1.63131 10.1299 1.69221L8.29738 3.53118L3.78769 8.03437C3.72747 8.09509 3.67982 8.1671 3.64748 8.24627C3.61514 8.32545 3.59875 8.41022 3.59925 8.49574ZM10.5912 3.06981L12.4302 4.90878L11.5075 5.83151L9.66849 3.99255L10.5912 3.06981ZM4.89887 8.76216L8.75225 4.90878L10.5912 6.74775L6.73784 10.6011H4.89887V8.76216Z" fill="#0BF1FF" fill-opacity="1"/>
</svg>