<svg width="16" height="16" viewBox="0 0 16 16" fill="none" xmlns="http://www.w3.org/2000/svg">
    <path d="M15.0394 13.9854L12.2585 11.225C13.338 9.87807 13.8607 8.16846 13.7193 6.44767C13.5778 4.72689 12.783 3.12574 11.4981 1.97344C10.2133 0.821149 8.5361 0.205301 6.81147 0.252529C5.08683 0.299757 3.44582 1.00647 2.22586 2.22736C1.0059 3.44824 0.299719 5.0905 0.252527 6.81645C0.205334 8.5424 0.820716 10.2208 1.97213 11.5067C3.12355 12.7925 4.72349 13.588 6.44297 13.7295C8.16245 13.8711 9.87076 13.3479 11.2167 12.2677L13.975 15.0281C14.0447 15.0984 14.1276 15.1542 14.2189 15.1923C14.3103 15.2304 14.4082 15.25 14.5072 15.25C14.6061 15.25 14.7041 15.2304 14.7955 15.1923C14.8868 15.1542 14.9697 15.0984 15.0394 15.0281C15.1745 14.8882 15.25 14.7013 15.25 14.5068C15.25 14.3122 15.1745 14.1253 15.0394 13.9854V13.9854ZM7.01166 12.2677C5.97392 12.2677 4.95949 11.9597 4.09664 11.3827C3.2338 10.8058 2.56129 9.98568 2.16417 9.02621C1.76705 8.06674 1.66314 7.01097 1.86559 5.9924C2.06804 4.97383 2.56776 4.03822 3.30155 3.30387C4.03534 2.56952 4.97025 2.06943 5.98804 1.86682C7.00584 1.66421 8.06081 1.7682 9.01955 2.16562C9.97829 2.56305 10.7977 3.23607 11.3743 4.09957C11.9508 4.96307 12.2585 5.97827 12.2585 7.01679C12.2585 8.40941 11.7057 9.74499 10.7218 10.7297C9.73778 11.7144 8.40322 12.2677 7.01166 12.2677V12.2677Z" fill="#0BF1FF"/>
</svg>