<svg width="12" height="15" viewBox="0 0 12 15" fill="none" xmlns="http://www.w3.org/2000/svg">
    <path d="M11.0491 3.75H8.83929V3C8.83929 2.20435 8.52886 1.44129 7.9763 0.87868C7.42373 0.316071 6.6743 0 5.89286 0C5.11142 0 4.36198 0.316071 3.80942 0.87868C3.25685 1.44129 2.94643 2.20435 2.94643 3V3.75H0.736607C0.541247 3.75 0.353888 3.82902 0.215747 3.96967C0.0776067 4.11032 0 4.30109 0 4.5V12.75C0 13.3467 0.23282 13.919 0.647242 14.341C1.06166 14.7629 1.62374 15 2.20982 15H9.57589C10.162 15 10.7241 14.7629 11.1385 14.341C11.5529 13.919 11.7857 13.3467 11.7857 12.75V4.5C11.7857 4.30109 11.7081 4.11032 11.57 3.96967C11.4318 3.82902 11.2445 3.75 11.0491 3.75ZM4.41964 3C4.41964 2.60218 4.57486 2.22064 4.85114 1.93934C5.12742 1.65804 5.50214 1.5 5.89286 1.5C6.28358 1.5 6.6583 1.65804 6.93458 1.93934C7.21086 2.22064 7.36607 2.60218 7.36607 3V3.75H4.41964V3ZM10.3125 12.75C10.3125 12.9489 10.2349 13.1397 10.0968 13.2803C9.95861 13.421 9.77125 13.5 9.57589 13.5H2.20982C2.01446 13.5 1.8271 13.421 1.68896 13.2803C1.55082 13.1397 1.47321 12.9489 1.47321 12.75V5.25H2.94643V6C2.94643 6.19891 3.02404 6.38968 3.16218 6.53033C3.30032 6.67098 3.48768 6.75 3.68304 6.75C3.8784 6.75 4.06575 6.67098 4.2039 6.53033C4.34204 6.38968 4.41964 6.19891 4.41964 6V5.25H7.36607V6C7.36607 6.19891 7.44368 6.38968 7.58182 6.53033C7.71996 6.67098 7.90732 6.75 8.10268 6.75C8.29804 6.75 8.4854 6.67098 8.62354 6.53033C8.76168 6.38968 8.83929 6.19891 8.83929 6V5.25H10.3125V12.75Z" fill="#0BF1FF"/>
</svg>