<svg width="10" height="10" viewBox="0 0 10 10" fill="none" xmlns="http://www.w3.org/2000/svg">
<path d="M7.90122 1.19808H6.34464C6.26699 0.524761 5.69412 0 5.0003 0C4.3065 0 3.73371 0.52474 3.65606 1.19808H2.0994C1.46946 1.19808 0.957031 1.71066 0.957031 2.34057V2.39919C0.957031 2.88057 1.25676 3.29259 1.679 3.46047V8.85751C1.679 9.48745 2.19149 10 2.82139 10H7.17925C7.80917 10 8.32162 9.48741 8.32162 8.85751V3.46049C8.74384 3.29259 9.04359 2.88057 9.04359 2.39921V2.34059C9.04359 1.71066 8.53112 1.19808 7.90122 1.19808ZM5.0003 0.541821C5.39491 0.541821 5.72428 0.82466 5.79716 1.19808H4.20358C4.27644 0.824639 4.60584 0.541821 5.0003 0.541821ZM7.7798 8.85751C7.7798 9.18871 7.51033 9.4582 7.17923 9.4582H2.82137C2.49027 9.4582 2.2208 9.18869 2.2208 8.85751V3.54168H7.7798V8.85751ZM8.50177 2.39919C8.50177 2.73039 8.2323 2.99988 7.9012 2.99988H2.0994C1.7683 2.99988 1.49883 2.73039 1.49883 2.39919V2.34057C1.49883 2.00937 1.7683 1.73988 2.0994 1.73988H7.90122C8.23232 1.73988 8.50179 2.00937 8.50179 2.34057L8.50177 2.39919Z" fill="#FA4141"/>
</svg>
