<svg width="18" height="18" viewBox="0 0 18 18" fill="none" xmlns="http://www.w3.org/2000/svg">
<path d="M16.5537 9.98303C15.7566 9.98303 15.1103 10.6293 15.1103 11.4264V15.1124H2.88949V11.4264C2.88949 10.6293 2.24323 9.98303 1.44609 9.98303C0.648945 9.98303 0.00268555 10.6293 0.00268555 11.4264V16.5558C0.00268555 17.3529 0.648945 17.9992 1.44609 17.9992H16.5537C17.3508 17.9992 17.9971 17.3529 17.9971 16.5558V11.4264C17.9971 10.6293 17.3508 9.98303 16.5537 9.98303Z" fill="#0BF1FF" fill-opacity="0.5"/>
<path d="M5.94523 6.53859L7.55646 4.92737V10.3052C7.55646 11.1024 8.20272 11.7486 8.99986 11.7486C9.797 11.7486 10.4433 11.1024 10.4433 10.3052V4.92732L12.0545 6.53854C12.3363 6.82039 12.7057 6.96132 13.0751 6.96132C13.4445 6.96132 13.8139 6.82039 14.0957 6.53854C14.6594 5.97485 14.6594 5.06098 14.0957 4.49728L10.0205 0.422076C9.45684 -0.141669 8.54288 -0.141669 7.97923 0.422076L3.90397 4.49733C3.34028 5.06103 3.34028 5.97489 3.90397 6.53859C4.46762 7.10229 5.38159 7.10229 5.94523 6.53859Z" fill="#0BF1FF" fill-opacity="0.5"/>
</svg>
