<?xml version="1.0" encoding="utf-8"?>
<svg viewBox="0.002 0 25.9971 26.0002" xmlns="http://www.w3.org/2000/svg">
    <path opacity="0.2" d="M25.6104 16.145C23.874 23.1094 16.8199 27.3474 9.85476 25.6111C2.89286 23.8747 -1.34555 16.8206 0.391171 9.85668C2.12667 2.89152 9.18039 -1.34729 16.1435 0.389023C23.1083 2.12534 27.3463 9.18027 25.61 16.145H25.6104Z" fill="#F7931A" transform="matrix(0.9999999999999999, 0, 0, 0.9999999999999999, -2.220446049250313e-16, 0)"/>
    <path d="M 19.501 16.154 C 19.501 18.724 17.415 20.43 14.335 20.687 L 14.335 23 L 12.225 23 L 12.225 20.664 C 10.142 20.429 8.162 19.629 6.501 18.35 L 8.053 16.224 C 9.436 17.299 10.745 18 12.322 18.234 L 12.322 13.654 C 8.781 12.766 7.132 11.481 7.132 8.841 C 7.132 6.318 9.193 4.589 12.225 4.355 L 12.225 3 L 14.335 3 L 14.335 4.402 C 15.984 4.585 17.556 5.197 18.895 6.178 L 17.536 8.374 C 16.469 7.603 15.378 7.112 14.238 6.879 L 14.238 11.318 C 17.925 12.206 19.501 13.631 19.501 16.154 Z M 12.321 10.827 L 12.321 6.715 C 10.794 6.832 9.994 7.65 9.994 8.678 C 9.994 9.658 10.454 10.29 12.322 10.828 L 12.321 10.827 Z M 16.639 16.317 C 16.639 15.267 16.129 14.636 14.238 14.098 L 14.238 18.328 C 15.766 18.21 16.639 17.439 16.639 16.318 L 16.639 16.317 Z" fill="#F7931A" transform="matrix(0.9999999999999999, 0, 0, 0.9999999999999999, -2.220446049250313e-16, 0)"/>
</svg>